<svg xmlns="http://www.w3.org/2000/svg" xmlns:xlink="http://www.w3.org/1999/xlink" width="100" zoomAndPan="magnify" viewBox="0 0 75 37.5" height="50" preserveAspectRatio="xMidYMid meet" version="1.0"><defs><g/><clipPath id="bf0911a471"><path d="M 0.863281 13 L 21 13 L 21 30.328125 L 0.863281 30.328125 Z M 0.863281 13 " clip-rule="nonzero"/></clipPath><clipPath id="a087f1b55e"><path d="M 1 6.59375 L 24.597656 6.59375 L 24.597656 28 L 1 28 Z M 1 6.59375 " clip-rule="nonzero"/></clipPath></defs><g clip-path="url(#bf0911a471)"><path fill="#2c7080" d="M 13.921875 23.164062 C 13.894531 23.09375 13.867188 23.019531 13.839844 22.945312 L 12.761719 19.980469 C 13.136719 20.050781 13.507812 20.085938 13.871094 20.085938 C 14.382812 20.085938 14.84375 20.011719 15.261719 19.855469 C 15.675781 19.703125 15.988281 19.464844 16.203125 19.144531 C 16.414062 18.824219 16.523438 18.484375 16.523438 18.128906 C 16.523438 17.828125 16.441406 17.5625 16.28125 17.335938 C 16.121094 17.109375 15.867188 16.941406 15.523438 16.828125 C 15.175781 16.714844 14.644531 16.660156 13.925781 16.660156 C 13.679688 16.660156 13.425781 16.664062 13.164062 16.675781 C 13.007812 16.683594 8.828125 16.6875 5.40625 16.691406 L 1.773438 13.933594 C 1.1875 15.339844 0.867188 16.886719 0.867188 18.503906 C 0.867188 25.082031 6.195312 30.414062 12.773438 30.414062 C 15.546875 30.414062 18.097656 29.464844 20.121094 27.875 L 13.921875 23.164062 " fill-opacity="1" fill-rule="nonzero"/></g><g clip-path="url(#a087f1b55e)"><path fill="#000000" d="M 12.773438 6.597656 C 7.910156 6.597656 3.730469 9.511719 1.882812 13.6875 C 4.808594 13.675781 13.957031 13.644531 14.59375 13.644531 C 15.488281 13.644531 16.285156 13.679688 16.984375 13.746094 C 17.507812 13.796875 17.984375 13.898438 18.414062 14.050781 C 18.84375 14.207031 19.203125 14.390625 19.496094 14.613281 C 19.792969 14.832031 20.035156 15.078125 20.230469 15.351562 C 20.425781 15.625 20.578125 15.941406 20.6875 16.308594 C 20.796875 16.675781 20.847656 17.070312 20.847656 17.488281 C 20.847656 17.957031 20.789062 18.394531 20.671875 18.804688 C 20.550781 19.210938 20.367188 19.597656 20.109375 19.957031 C 19.855469 20.316406 19.535156 20.625 19.148438 20.886719 C 18.757812 21.148438 18.214844 21.417969 17.519531 21.691406 L 18.0625 23.019531 C 18.214844 23.390625 18.378906 23.769531 18.554688 24.152344 L 19.957031 27.222656 C 20.011719 27.328125 20.09375 27.523438 20.210938 27.804688 C 22.9375 25.621094 24.683594 22.269531 24.683594 18.503906 C 24.683594 11.925781 19.351562 6.597656 12.773438 6.597656 " fill-opacity="1" fill-rule="nonzero"/></g><path stroke-linecap="butt" transform="matrix(0, -0.217737, 0.217737, 0, 26.61487, 27.153236)" fill="none" stroke-linejoin="miter" d="M 0.00409668 2.002007 L 70.831975 2.002007 " stroke="#2c7080" stroke-width="4" stroke-opacity="1" stroke-miterlimit="4"/><g fill="#2c7080" fill-opacity="1"><g transform="translate(30.081463, 16.177835)"><g><path d="M 2.5 0.046875 C 1.726562 0.046875 1.132812 -0.207031 0.71875 -0.71875 C 0.375 -1.125 0.203125 -1.609375 0.203125 -2.171875 C 0.203125 -2.765625 0.367188 -3.273438 0.703125 -3.703125 C 1.128906 -4.234375 1.726562 -4.5 2.5 -4.5 C 3.101562 -4.5 3.59375 -4.351562 3.96875 -4.0625 C 4.351562 -3.78125 4.582031 -3.40625 4.65625 -2.9375 L 3.46875 -2.9375 C 3.46875 -3.15625 3.378906 -3.320312 3.203125 -3.4375 C 3.035156 -3.550781 2.828125 -3.609375 2.578125 -3.609375 C 2.203125 -3.609375 1.90625 -3.472656 1.6875 -3.203125 C 1.46875 -2.941406 1.359375 -2.597656 1.359375 -2.171875 C 1.359375 -1.765625 1.460938 -1.441406 1.671875 -1.203125 C 1.878906 -0.960938 2.15625 -0.84375 2.5 -0.84375 C 2.820312 -0.84375 3.066406 -0.894531 3.234375 -1 C 3.410156 -1.101562 3.539062 -1.28125 3.625 -1.53125 L 2.84375 -1.53125 L 2.84375 -2.390625 L 4.625 -2.390625 L 4.625 0 L 3.78125 0 L 3.75 -0.359375 C 3.4375 -0.0859375 3.019531 0.046875 2.5 0.046875 Z M 2.5 0.046875 "/></g></g></g><g fill="#2c7080" fill-opacity="1"><g transform="translate(35.054254, 16.177835)"><g><path d="M 4.1875 -2.859375 C 4.1875 -2.597656 4.117188 -2.34375 3.984375 -2.09375 C 3.847656 -1.84375 3.648438 -1.640625 3.390625 -1.484375 L 4.09375 0 L 2.8125 0 L 2.21875 -1.28125 L 1.515625 -1.28125 L 1.515625 0 L 0.359375 0 L 0.359375 -4.421875 L 2.40625 -4.421875 C 2.988281 -4.421875 3.429688 -4.269531 3.734375 -3.96875 C 4.035156 -3.664062 4.1875 -3.296875 4.1875 -2.859375 Z M 1.515625 -2.171875 L 2.359375 -2.171875 C 2.554688 -2.171875 2.71875 -2.226562 2.84375 -2.34375 C 2.96875 -2.46875 3.03125 -2.632812 3.03125 -2.84375 C 3.03125 -3.050781 2.96875 -3.21875 2.84375 -3.34375 C 2.71875 -3.46875 2.554688 -3.53125 2.359375 -3.53125 L 1.515625 -3.53125 Z M 1.515625 -2.171875 "/></g></g></g><g fill="#2c7080" fill-opacity="1"><g transform="translate(39.400732, 16.177835)"><g><path d="M 2.46875 0.046875 C 1.707031 0.046875 1.117188 -0.207031 0.703125 -0.71875 C 0.367188 -1.125 0.203125 -1.609375 0.203125 -2.171875 C 0.203125 -2.765625 0.367188 -3.273438 0.703125 -3.703125 C 1.117188 -4.234375 1.707031 -4.5 2.46875 -4.5 C 3.238281 -4.5 3.832031 -4.234375 4.25 -3.703125 C 4.582031 -3.285156 4.75 -2.773438 4.75 -2.171875 C 4.75 -1.609375 4.582031 -1.125 4.25 -0.71875 C 3.832031 -0.207031 3.238281 0.046875 2.46875 0.046875 Z M 1.65625 -1.203125 C 1.863281 -0.960938 2.132812 -0.84375 2.46875 -0.84375 C 2.8125 -0.84375 3.082031 -0.960938 3.28125 -1.203125 C 3.476562 -1.441406 3.578125 -1.765625 3.578125 -2.171875 C 3.578125 -2.585938 3.476562 -2.929688 3.28125 -3.203125 C 3.09375 -3.472656 2.820312 -3.609375 2.46875 -3.609375 C 2.125 -3.609375 1.851562 -3.472656 1.65625 -3.203125 C 1.457031 -2.929688 1.359375 -2.585938 1.359375 -2.171875 C 1.359375 -1.765625 1.457031 -1.441406 1.65625 -1.203125 Z M 1.65625 -1.203125 "/></g></g></g><g fill="#2c7080" fill-opacity="1"><g transform="translate(44.350888, 16.177835)"><g><path d="M 2.4375 0.046875 C 1.675781 0.046875 1.113281 -0.1875 0.75 -0.65625 C 0.457031 -1.019531 0.3125 -1.484375 0.3125 -2.046875 L 0.3125 -4.421875 L 1.484375 -4.421875 L 1.484375 -2.03125 C 1.484375 -1.238281 1.800781 -0.84375 2.4375 -0.84375 C 3.0625 -0.84375 3.375 -1.238281 3.375 -2.03125 L 3.375 -4.421875 L 4.5625 -4.421875 L 4.5625 -2.046875 C 4.5625 -1.484375 4.421875 -1.019531 4.140625 -0.65625 C 3.765625 -0.1875 3.195312 0.046875 2.4375 0.046875 Z M 2.4375 0.046875 "/></g></g></g><g fill="#2c7080" fill-opacity="1"><g transform="translate(49.233131, 16.177835)"><g><path d="M 0.359375 0 L 0.359375 -4.421875 L 2.359375 -4.421875 C 2.941406 -4.421875 3.390625 -4.269531 3.703125 -3.96875 C 4.023438 -3.664062 4.1875 -3.296875 4.1875 -2.859375 C 4.1875 -2.421875 4.023438 -2.046875 3.703125 -1.734375 C 3.390625 -1.429688 2.941406 -1.28125 2.359375 -1.28125 L 1.515625 -1.28125 L 1.515625 0 Z M 1.515625 -2.171875 L 2.359375 -2.171875 C 2.554688 -2.171875 2.71875 -2.226562 2.84375 -2.34375 C 2.96875 -2.46875 3.03125 -2.632812 3.03125 -2.84375 C 3.03125 -3.050781 2.96875 -3.21875 2.84375 -3.34375 C 2.71875 -3.46875 2.554688 -3.53125 2.359375 -3.53125 L 1.515625 -3.53125 Z M 1.515625 -2.171875 "/></g></g></g><g fill="#000000" fill-opacity="1"><g transform="translate(30.081463, 22.056743)"><g><path d="M 0.359375 0 L 0.359375 -4.421875 L 2.359375 -4.421875 C 2.941406 -4.421875 3.390625 -4.269531 3.703125 -3.96875 C 4.023438 -3.664062 4.1875 -3.296875 4.1875 -2.859375 C 4.1875 -2.421875 4.023438 -2.046875 3.703125 -1.734375 C 3.390625 -1.429688 2.941406 -1.28125 2.359375 -1.28125 L 1.515625 -1.28125 L 1.515625 0 Z M 1.515625 -2.171875 L 2.359375 -2.171875 C 2.554688 -2.171875 2.71875 -2.226562 2.84375 -2.34375 C 2.96875 -2.46875 3.03125 -2.632812 3.03125 -2.84375 C 3.03125 -3.050781 2.96875 -3.21875 2.84375 -3.34375 C 2.71875 -3.46875 2.554688 -3.53125 2.359375 -3.53125 L 1.515625 -3.53125 Z M 1.515625 -2.171875 "/></g></g></g><g fill="#000000" fill-opacity="1"><g transform="translate(34.390211, 22.056743)"><g><path d="M 2.46875 0.046875 C 1.707031 0.046875 1.117188 -0.207031 0.703125 -0.71875 C 0.367188 -1.125 0.203125 -1.609375 0.203125 -2.171875 C 0.203125 -2.765625 0.367188 -3.273438 0.703125 -3.703125 C 1.117188 -4.234375 1.707031 -4.5 2.46875 -4.5 C 3.238281 -4.5 3.832031 -4.234375 4.25 -3.703125 C 4.582031 -3.285156 4.75 -2.773438 4.75 -2.171875 C 4.75 -1.609375 4.582031 -1.125 4.25 -0.71875 C 3.832031 -0.207031 3.238281 0.046875 2.46875 0.046875 Z M 1.65625 -1.203125 C 1.863281 -0.960938 2.132812 -0.84375 2.46875 -0.84375 C 2.8125 -0.84375 3.082031 -0.960938 3.28125 -1.203125 C 3.476562 -1.441406 3.578125 -1.765625 3.578125 -2.171875 C 3.578125 -2.585938 3.476562 -2.929688 3.28125 -3.203125 C 3.09375 -3.472656 2.820312 -3.609375 2.46875 -3.609375 C 2.125 -3.609375 1.851562 -3.472656 1.65625 -3.203125 C 1.457031 -2.929688 1.359375 -2.585938 1.359375 -2.171875 C 1.359375 -1.765625 1.457031 -1.441406 1.65625 -1.203125 Z M 1.65625 -1.203125 "/></g></g></g><g fill="#000000" fill-opacity="1"><g transform="translate(39.340367, 22.056743)"><g><path d="M 4.1875 -2.859375 C 4.1875 -2.597656 4.117188 -2.34375 3.984375 -2.09375 C 3.847656 -1.84375 3.648438 -1.640625 3.390625 -1.484375 L 4.09375 0 L 2.8125 0 L 2.21875 -1.28125 L 1.515625 -1.28125 L 1.515625 0 L 0.359375 0 L 0.359375 -4.421875 L 2.40625 -4.421875 C 2.988281 -4.421875 3.429688 -4.269531 3.734375 -3.96875 C 4.035156 -3.664062 4.1875 -3.296875 4.1875 -2.859375 Z M 1.515625 -2.171875 L 2.359375 -2.171875 C 2.554688 -2.171875 2.71875 -2.226562 2.84375 -2.34375 C 2.96875 -2.46875 3.03125 -2.632812 3.03125 -2.84375 C 3.03125 -3.050781 2.96875 -3.21875 2.84375 -3.34375 C 2.71875 -3.46875 2.554688 -3.53125 2.359375 -3.53125 L 1.515625 -3.53125 Z M 1.515625 -2.171875 "/></g></g></g><g fill="#000000" fill-opacity="1"><g transform="translate(43.686845, 22.056743)"><g><path d="M 2.53125 0 L 1.359375 0 L 1.359375 -3.53125 L 0.09375 -3.53125 L 0.09375 -4.421875 L 3.796875 -4.421875 L 3.796875 -3.53125 L 2.53125 -3.53125 Z M 2.53125 0 "/></g></g></g><g fill="#000000" fill-opacity="1"><g transform="translate(47.580565, 22.056743)"><g><path d="M 0.359375 -4.421875 L 3.671875 -4.421875 L 3.671875 -3.53125 L 1.515625 -3.53125 L 1.515625 -2.4375 L 3.375 -2.4375 L 3.375 -1.53125 L 1.515625 -1.53125 L 1.515625 0 L 0.359375 0 Z M 0.359375 -4.421875 "/></g></g></g><g fill="#000000" fill-opacity="1"><g transform="translate(51.421461, 22.056743)"><g><path d="M 2.46875 0.046875 C 1.707031 0.046875 1.117188 -0.207031 0.703125 -0.71875 C 0.367188 -1.125 0.203125 -1.609375 0.203125 -2.171875 C 0.203125 -2.765625 0.367188 -3.273438 0.703125 -3.703125 C 1.117188 -4.234375 1.707031 -4.5 2.46875 -4.5 C 3.238281 -4.5 3.832031 -4.234375 4.25 -3.703125 C 4.582031 -3.285156 4.75 -2.773438 4.75 -2.171875 C 4.75 -1.609375 4.582031 -1.125 4.25 -0.71875 C 3.832031 -0.207031 3.238281 0.046875 2.46875 0.046875 Z M 1.65625 -1.203125 C 1.863281 -0.960938 2.132812 -0.84375 2.46875 -0.84375 C 2.8125 -0.84375 3.082031 -0.960938 3.28125 -1.203125 C 3.476562 -1.441406 3.578125 -1.765625 3.578125 -2.171875 C 3.578125 -2.585938 3.476562 -2.929688 3.28125 -3.203125 C 3.09375 -3.472656 2.820312 -3.609375 2.46875 -3.609375 C 2.125 -3.609375 1.851562 -3.472656 1.65625 -3.203125 C 1.457031 -2.929688 1.359375 -2.585938 1.359375 -2.171875 C 1.359375 -1.765625 1.457031 -1.441406 1.65625 -1.203125 Z M 1.65625 -1.203125 "/></g></g></g><g fill="#000000" fill-opacity="1"><g transform="translate(56.371617, 22.056743)"><g><path d="M 0.359375 -4.421875 L 1.515625 -4.421875 L 1.515625 -0.890625 L 3.6875 -0.890625 L 3.6875 0 L 0.359375 0 Z M 0.359375 -4.421875 "/></g></g></g><g fill="#000000" fill-opacity="1"><g transform="translate(60.220063, 22.056743)"><g><path d="M 0.359375 -4.421875 L 1.53125 -4.421875 L 1.53125 0 L 0.359375 0 Z M 0.359375 -4.421875 "/></g></g></g><g fill="#000000" fill-opacity="1"><g transform="translate(62.106556, 22.056743)"><g><path d="M 2.46875 0.046875 C 1.707031 0.046875 1.117188 -0.207031 0.703125 -0.71875 C 0.367188 -1.125 0.203125 -1.609375 0.203125 -2.171875 C 0.203125 -2.765625 0.367188 -3.273438 0.703125 -3.703125 C 1.117188 -4.234375 1.707031 -4.5 2.46875 -4.5 C 3.238281 -4.5 3.832031 -4.234375 4.25 -3.703125 C 4.582031 -3.285156 4.75 -2.773438 4.75 -2.171875 C 4.75 -1.609375 4.582031 -1.125 4.25 -0.71875 C 3.832031 -0.207031 3.238281 0.046875 2.46875 0.046875 Z M 1.65625 -1.203125 C 1.863281 -0.960938 2.132812 -0.84375 2.46875 -0.84375 C 2.8125 -0.84375 3.082031 -0.960938 3.28125 -1.203125 C 3.476562 -1.441406 3.578125 -1.765625 3.578125 -2.171875 C 3.578125 -2.585938 3.476562 -2.929688 3.28125 -3.203125 C 3.09375 -3.472656 2.820312 -3.609375 2.46875 -3.609375 C 2.125 -3.609375 1.851562 -3.472656 1.65625 -3.203125 C 1.457031 -2.929688 1.359375 -2.585938 1.359375 -2.171875 C 1.359375 -1.765625 1.457031 -1.441406 1.65625 -1.203125 Z M 1.65625 -1.203125 "/></g></g></g><g fill="#2c7080" fill-opacity="1"><g transform="translate(30.385956, 26.497021)"><g><path d="M 1.71875 -1.734375 L 1.09375 -1.734375 L 1.09375 0 L 0.671875 0 L 0.671875 -1.734375 L 0.0625 -1.734375 L 0.0625 -2.078125 L 1.71875 -2.078125 Z M 1.71875 -1.734375 "/></g></g></g><g fill="#2c7080" fill-opacity="1"><g transform="translate(32.431985, 26.497021)"><g><path d="M 0.78125 -1.546875 C 1.019531 -1.546875 1.195312 -1.46875 1.3125 -1.3125 C 1.4375 -1.15625 1.5 -0.929688 1.5 -0.640625 L 0.5 -0.640625 C 0.5 -0.535156 0.523438 -0.445312 0.578125 -0.375 C 0.640625 -0.300781 0.722656 -0.265625 0.828125 -0.265625 C 0.890625 -0.265625 0.941406 -0.28125 0.984375 -0.3125 C 1.023438 -0.351562 1.054688 -0.410156 1.078125 -0.484375 L 1.484375 -0.40625 C 1.429688 -0.257812 1.347656 -0.148438 1.234375 -0.078125 C 1.117188 -0.00390625 0.984375 0.03125 0.828125 0.03125 C 0.578125 0.03125 0.390625 -0.0390625 0.265625 -0.1875 C 0.210938 -0.25 0.171875 -0.332031 0.140625 -0.4375 C 0.109375 -0.539062 0.09375 -0.644531 0.09375 -0.75 C 0.09375 -0.882812 0.113281 -1.007812 0.15625 -1.125 C 0.207031 -1.25 0.285156 -1.347656 0.390625 -1.421875 C 0.492188 -1.503906 0.625 -1.546875 0.78125 -1.546875 Z M 0.515625 -0.890625 L 1.109375 -0.890625 C 1.097656 -1.003906 1.0625 -1.085938 1 -1.140625 C 0.945312 -1.203125 0.882812 -1.234375 0.8125 -1.234375 C 0.71875 -1.234375 0.644531 -1.195312 0.59375 -1.125 C 0.539062 -1.0625 0.515625 -0.984375 0.515625 -0.890625 Z M 0.515625 -0.890625 "/></g></g></g><g fill="#2c7080" fill-opacity="1"><g transform="translate(34.318406, 26.497021)"><g><path d="M 0.296875 -1.3125 C 0.429688 -1.46875 0.617188 -1.546875 0.859375 -1.546875 C 1.210938 -1.546875 1.4375 -1.382812 1.53125 -1.0625 L 1.140625 -0.984375 C 1.097656 -1.148438 1.003906 -1.234375 0.859375 -1.234375 C 0.753906 -1.234375 0.671875 -1.195312 0.609375 -1.125 C 0.554688 -1.050781 0.53125 -0.9375 0.53125 -0.78125 C 0.53125 -0.632812 0.554688 -0.515625 0.609375 -0.421875 C 0.660156 -0.335938 0.742188 -0.296875 0.859375 -0.296875 C 0.941406 -0.296875 1.003906 -0.316406 1.046875 -0.359375 C 1.097656 -0.410156 1.132812 -0.484375 1.15625 -0.578125 L 1.546875 -0.515625 C 1.460938 -0.148438 1.226562 0.03125 0.84375 0.03125 C 0.613281 0.03125 0.4375 -0.0351562 0.3125 -0.171875 C 0.25 -0.242188 0.203125 -0.332031 0.171875 -0.4375 C 0.140625 -0.539062 0.125 -0.644531 0.125 -0.75 C 0.125 -0.863281 0.140625 -0.96875 0.171875 -1.0625 C 0.203125 -1.164062 0.242188 -1.25 0.296875 -1.3125 Z M 0.296875 -1.3125 "/></g></g></g><g fill="#2c7080" fill-opacity="1"><g transform="translate(36.204827, 26.497021)"><g><path d="M 0.609375 -1.3125 C 0.671875 -1.394531 0.738281 -1.453125 0.8125 -1.484375 C 0.894531 -1.523438 0.976562 -1.546875 1.0625 -1.546875 C 1.144531 -1.546875 1.21875 -1.53125 1.28125 -1.5 C 1.34375 -1.476562 1.394531 -1.445312 1.4375 -1.40625 C 1.53125 -1.320312 1.578125 -1.164062 1.578125 -0.9375 L 1.578125 0 L 1.171875 0 L 1.171875 -0.84375 C 1.171875 -0.9375 1.164062 -1.007812 1.15625 -1.0625 C 1.144531 -1.113281 1.117188 -1.15625 1.078125 -1.1875 C 1.046875 -1.21875 1 -1.234375 0.9375 -1.234375 C 0.800781 -1.234375 0.710938 -1.191406 0.671875 -1.109375 C 0.628906 -1.023438 0.609375 -0.914062 0.609375 -0.78125 L 0.609375 0 L 0.203125 0 L 0.203125 -2.078125 L 0.609375 -2.078125 Z M 0.609375 -1.3125 "/></g></g></g><g fill="#2c7080" fill-opacity="1"><g transform="translate(38.250857, 26.497021)"><g/></g></g><g fill="#2c7080" fill-opacity="1"><g transform="translate(39.330514, 26.497021)"><g><path d="M 2.09375 0 L 1.625 0 L 1.453125 -0.46875 L 0.625 -0.46875 L 0.453125 0 L 0 0 L 0.8125 -2.078125 L 1.25 -2.078125 Z M 0.75 -0.828125 L 1.3125 -0.828125 L 1.03125 -1.59375 Z M 0.75 -0.828125 "/></g></g></g><g fill="#2c7080" fill-opacity="1"><g transform="translate(41.698668, 26.497021)"><g><path d="M 0.765625 -1.546875 C 0.953125 -1.546875 1.097656 -1.515625 1.203125 -1.453125 C 1.304688 -1.390625 1.378906 -1.285156 1.421875 -1.140625 L 1.046875 -1.078125 C 1.023438 -1.140625 0.992188 -1.179688 0.953125 -1.203125 C 0.910156 -1.234375 0.847656 -1.25 0.765625 -1.25 C 0.578125 -1.25 0.484375 -1.207031 0.484375 -1.125 C 0.484375 -1.082031 0.515625 -1.050781 0.578125 -1.03125 C 0.640625 -1.007812 0.726562 -0.984375 0.84375 -0.953125 C 0.976562 -0.921875 1.085938 -0.890625 1.171875 -0.859375 C 1.265625 -0.828125 1.335938 -0.78125 1.390625 -0.71875 C 1.441406 -0.65625 1.46875 -0.570312 1.46875 -0.46875 C 1.46875 -0.382812 1.441406 -0.300781 1.390625 -0.21875 C 1.347656 -0.144531 1.273438 -0.0820312 1.171875 -0.03125 C 1.066406 0.0078125 0.9375 0.03125 0.78125 0.03125 C 0.601562 0.03125 0.445312 -0.00390625 0.3125 -0.078125 C 0.1875 -0.148438 0.101562 -0.269531 0.0625 -0.4375 L 0.46875 -0.484375 C 0.5 -0.328125 0.601562 -0.25 0.78125 -0.25 C 0.851562 -0.25 0.921875 -0.257812 0.984375 -0.28125 C 1.046875 -0.3125 1.078125 -0.359375 1.078125 -0.421875 C 1.078125 -0.460938 1.0625 -0.488281 1.03125 -0.5 C 1 -0.519531 0.953125 -0.535156 0.890625 -0.546875 C 0.710938 -0.585938 0.570312 -0.625 0.46875 -0.65625 C 0.363281 -0.695312 0.28125 -0.75 0.21875 -0.8125 C 0.15625 -0.875 0.125 -0.960938 0.125 -1.078125 C 0.125 -1.234375 0.179688 -1.347656 0.296875 -1.421875 C 0.421875 -1.503906 0.578125 -1.546875 0.765625 -1.546875 Z M 0.765625 -1.546875 "/></g></g></g><g fill="#2c7080" fill-opacity="1"><g transform="translate(43.585089, 26.497021)"><g><path d="M 1.03125 -1.546875 C 1.144531 -1.546875 1.25 -1.515625 1.34375 -1.453125 C 1.4375 -1.390625 1.515625 -1.296875 1.578125 -1.171875 C 1.640625 -1.054688 1.671875 -0.910156 1.671875 -0.734375 C 1.671875 -0.566406 1.640625 -0.425781 1.578125 -0.3125 C 1.523438 -0.195312 1.445312 -0.109375 1.34375 -0.046875 C 1.25 0.00390625 1.144531 0.03125 1.03125 0.03125 C 0.863281 0.03125 0.71875 -0.0351562 0.59375 -0.171875 L 0.59375 0.578125 L 0.203125 0.578125 L 0.203125 -1.5 L 0.5625 -1.5 L 0.5625 -1.28125 L 0.578125 -1.28125 C 0.617188 -1.351562 0.679688 -1.414062 0.765625 -1.46875 C 0.847656 -1.519531 0.9375 -1.546875 1.03125 -1.546875 Z M 0.625 -0.96875 C 0.601562 -0.914062 0.59375 -0.832031 0.59375 -0.71875 C 0.59375 -0.570312 0.625 -0.457031 0.6875 -0.375 C 0.75 -0.300781 0.828125 -0.265625 0.921875 -0.265625 C 1.046875 -0.265625 1.132812 -0.3125 1.1875 -0.40625 C 1.238281 -0.5 1.265625 -0.613281 1.265625 -0.75 C 1.265625 -0.914062 1.234375 -1.035156 1.171875 -1.109375 C 1.109375 -1.179688 1.03125 -1.21875 0.9375 -1.21875 C 0.875 -1.21875 0.8125 -1.195312 0.75 -1.15625 C 0.695312 -1.113281 0.65625 -1.050781 0.625 -0.96875 Z M 0.625 -0.96875 "/></g></g></g><g fill="#2c7080" fill-opacity="1"><g transform="translate(45.631119, 26.497021)"><g><path d="M 0.609375 -1.71875 L 0.203125 -1.71875 L 0.203125 -2.078125 L 0.609375 -2.078125 Z M 0.609375 0 L 0.203125 0 L 0.203125 -1.5 L 0.609375 -1.5 Z M 0.609375 0 "/></g></g></g><g fill="#2c7080" fill-opacity="1"><g transform="translate(46.710775, 26.497021)"><g><path d="M 0.90625 -1.546875 C 0.945312 -1.546875 0.988281 -1.535156 1.03125 -1.515625 C 1.082031 -1.503906 1.128906 -1.488281 1.171875 -1.46875 L 1.046875 -1.125 C 0.972656 -1.164062 0.910156 -1.1875 0.859375 -1.1875 C 0.785156 -1.1875 0.726562 -1.160156 0.6875 -1.109375 C 0.644531 -1.054688 0.617188 -0.984375 0.609375 -0.890625 C 0.597656 -0.796875 0.59375 -0.671875 0.59375 -0.515625 L 0.59375 0 L 0.1875 0 L 0.1875 -1.5 L 0.5625 -1.5 L 0.5625 -1.296875 C 0.613281 -1.378906 0.660156 -1.441406 0.703125 -1.484375 C 0.753906 -1.523438 0.820312 -1.546875 0.90625 -1.546875 Z M 0.90625 -1.546875 "/></g></g></g><g fill="#2c7080" fill-opacity="1"><g transform="translate(48.112556, 26.497021)"><g><path d="M 0.78125 -1.546875 C 1.019531 -1.546875 1.195312 -1.46875 1.3125 -1.3125 C 1.4375 -1.15625 1.5 -0.929688 1.5 -0.640625 L 0.5 -0.640625 C 0.5 -0.535156 0.523438 -0.445312 0.578125 -0.375 C 0.640625 -0.300781 0.722656 -0.265625 0.828125 -0.265625 C 0.890625 -0.265625 0.941406 -0.28125 0.984375 -0.3125 C 1.023438 -0.351562 1.054688 -0.410156 1.078125 -0.484375 L 1.484375 -0.40625 C 1.429688 -0.257812 1.347656 -0.148438 1.234375 -0.078125 C 1.117188 -0.00390625 0.984375 0.03125 0.828125 0.03125 C 0.578125 0.03125 0.390625 -0.0390625 0.265625 -0.1875 C 0.210938 -0.25 0.171875 -0.332031 0.140625 -0.4375 C 0.109375 -0.539062 0.09375 -0.644531 0.09375 -0.75 C 0.09375 -0.882812 0.113281 -1.007812 0.15625 -1.125 C 0.207031 -1.25 0.285156 -1.347656 0.390625 -1.421875 C 0.492188 -1.503906 0.625 -1.546875 0.78125 -1.546875 Z M 0.515625 -0.890625 L 1.109375 -0.890625 C 1.097656 -1.003906 1.0625 -1.085938 1 -1.140625 C 0.945312 -1.203125 0.882812 -1.234375 0.8125 -1.234375 C 0.71875 -1.234375 0.644531 -1.195312 0.59375 -1.125 C 0.539062 -1.0625 0.515625 -0.984375 0.515625 -0.890625 Z M 0.515625 -0.890625 "/></g></g></g><g fill="#2c7080" fill-opacity="1"><g transform="translate(49.998976, 26.497021)"><g><path d="M 1.078125 -1.546875 C 1.160156 -1.546875 1.234375 -1.53125 1.296875 -1.5 C 1.367188 -1.46875 1.425781 -1.429688 1.46875 -1.390625 C 1.507812 -1.335938 1.535156 -1.273438 1.546875 -1.203125 C 1.566406 -1.140625 1.578125 -1.066406 1.578125 -0.984375 L 1.578125 0 L 1.1875 0 L 1.1875 -0.828125 C 1.1875 -0.960938 1.171875 -1.0625 1.140625 -1.125 C 1.109375 -1.195312 1.039062 -1.234375 0.9375 -1.234375 C 0.84375 -1.234375 0.769531 -1.207031 0.71875 -1.15625 C 0.664062 -1.101562 0.632812 -1.039062 0.625 -0.96875 C 0.613281 -0.914062 0.609375 -0.867188 0.609375 -0.828125 C 0.609375 -0.796875 0.609375 -0.757812 0.609375 -0.71875 L 0.609375 0 L 0.203125 0 L 0.203125 -1.5 L 0.578125 -1.5 L 0.578125 -1.28125 C 0.617188 -1.34375 0.679688 -1.398438 0.765625 -1.453125 C 0.859375 -1.515625 0.960938 -1.546875 1.078125 -1.546875 Z M 1.078125 -1.546875 "/></g></g></g><g fill="#2c7080" fill-opacity="1"><g transform="translate(52.045005, 26.497021)"><g><path d="M 0.625 -1.5 L 0.890625 -1.5 L 0.890625 -1.1875 L 0.625 -1.1875 L 0.625 -0.53125 C 0.625 -0.46875 0.625 -0.421875 0.625 -0.390625 C 0.632812 -0.359375 0.644531 -0.332031 0.65625 -0.3125 C 0.675781 -0.300781 0.703125 -0.296875 0.734375 -0.296875 C 0.773438 -0.296875 0.828125 -0.304688 0.890625 -0.328125 L 0.9375 -0.03125 C 0.894531 -0.0078125 0.84375 0.00390625 0.78125 0.015625 C 0.726562 0.0234375 0.675781 0.03125 0.625 0.03125 C 0.539062 0.03125 0.46875 0.0195312 0.40625 0 C 0.351562 -0.03125 0.316406 -0.0664062 0.296875 -0.109375 C 0.265625 -0.148438 0.242188 -0.203125 0.234375 -0.265625 C 0.234375 -0.328125 0.234375 -0.398438 0.234375 -0.484375 L 0.234375 -1.1875 L 0.046875 -1.1875 L 0.046875 -1.5 L 0.234375 -1.5 L 0.234375 -1.8125 L 0.625 -2.046875 Z M 0.625 -1.5 "/></g></g></g><g fill="#2c7080" fill-opacity="1"><g transform="translate(53.284273, 26.497021)"><g><path d="M 0.765625 -1.546875 C 0.953125 -1.546875 1.097656 -1.515625 1.203125 -1.453125 C 1.304688 -1.390625 1.378906 -1.285156 1.421875 -1.140625 L 1.046875 -1.078125 C 1.023438 -1.140625 0.992188 -1.179688 0.953125 -1.203125 C 0.910156 -1.234375 0.847656 -1.25 0.765625 -1.25 C 0.578125 -1.25 0.484375 -1.207031 0.484375 -1.125 C 0.484375 -1.082031 0.515625 -1.050781 0.578125 -1.03125 C 0.640625 -1.007812 0.726562 -0.984375 0.84375 -0.953125 C 0.976562 -0.921875 1.085938 -0.890625 1.171875 -0.859375 C 1.265625 -0.828125 1.335938 -0.78125 1.390625 -0.71875 C 1.441406 -0.65625 1.46875 -0.570312 1.46875 -0.46875 C 1.46875 -0.382812 1.441406 -0.300781 1.390625 -0.21875 C 1.347656 -0.144531 1.273438 -0.0820312 1.171875 -0.03125 C 1.066406 0.0078125 0.9375 0.03125 0.78125 0.03125 C 0.601562 0.03125 0.445312 -0.00390625 0.3125 -0.078125 C 0.1875 -0.148438 0.101562 -0.269531 0.0625 -0.4375 L 0.46875 -0.484375 C 0.5 -0.328125 0.601562 -0.25 0.78125 -0.25 C 0.851562 -0.25 0.921875 -0.257812 0.984375 -0.28125 C 1.046875 -0.3125 1.078125 -0.359375 1.078125 -0.421875 C 1.078125 -0.460938 1.0625 -0.488281 1.03125 -0.5 C 1 -0.519531 0.953125 -0.535156 0.890625 -0.546875 C 0.710938 -0.585938 0.570312 -0.625 0.46875 -0.65625 C 0.363281 -0.695312 0.28125 -0.75 0.21875 -0.8125 C 0.15625 -0.875 0.125 -0.960938 0.125 -1.078125 C 0.125 -1.234375 0.179688 -1.347656 0.296875 -1.421875 C 0.421875 -1.503906 0.578125 -1.546875 0.765625 -1.546875 Z M 0.765625 -1.546875 "/></g></g></g><g fill="#2c7080" fill-opacity="1"><g transform="translate(55.170694, 26.497021)"><g/></g></g><g fill="#2c7080" fill-opacity="1"><g transform="translate(56.25035, 26.497021)"><g><path d="M 1.171875 -2.109375 C 1.410156 -2.109375 1.601562 -2.054688 1.75 -1.953125 C 1.90625 -1.859375 2.007812 -1.707031 2.0625 -1.5 L 1.640625 -1.421875 C 1.609375 -1.535156 1.550781 -1.617188 1.46875 -1.671875 C 1.382812 -1.722656 1.285156 -1.75 1.171875 -1.75 C 1.054688 -1.75 0.957031 -1.726562 0.875 -1.6875 C 0.789062 -1.644531 0.722656 -1.582031 0.671875 -1.5 C 0.609375 -1.394531 0.578125 -1.25 0.578125 -1.0625 C 0.578125 -0.84375 0.625 -0.664062 0.71875 -0.53125 C 0.820312 -0.394531 0.972656 -0.328125 1.171875 -0.328125 C 1.253906 -0.328125 1.335938 -0.34375 1.421875 -0.375 C 1.503906 -0.40625 1.582031 -0.445312 1.65625 -0.5 L 1.65625 -0.765625 L 1.1875 -0.765625 L 1.1875 -1.109375 L 2.078125 -1.109375 L 2.078125 -0.28125 C 1.972656 -0.1875 1.835938 -0.109375 1.671875 -0.046875 C 1.515625 0.00390625 1.351562 0.03125 1.1875 0.03125 C 0.957031 0.03125 0.765625 -0.015625 0.609375 -0.109375 C 0.453125 -0.203125 0.332031 -0.332031 0.25 -0.5 C 0.175781 -0.664062 0.140625 -0.847656 0.140625 -1.046875 C 0.140625 -1.242188 0.175781 -1.421875 0.25 -1.578125 C 0.320312 -1.742188 0.4375 -1.875 0.59375 -1.96875 C 0.75 -2.0625 0.941406 -2.109375 1.171875 -2.109375 Z M 1.171875 -2.109375 "/></g></g></g><g fill="#2c7080" fill-opacity="1"><g transform="translate(58.781019, 26.497021)"><g><path d="M 0.90625 -1.546875 C 0.945312 -1.546875 0.988281 -1.535156 1.03125 -1.515625 C 1.082031 -1.503906 1.128906 -1.488281 1.171875 -1.46875 L 1.046875 -1.125 C 0.972656 -1.164062 0.910156 -1.1875 0.859375 -1.1875 C 0.785156 -1.1875 0.726562 -1.160156 0.6875 -1.109375 C 0.644531 -1.054688 0.617188 -0.984375 0.609375 -0.890625 C 0.597656 -0.796875 0.59375 -0.671875 0.59375 -0.515625 L 0.59375 0 L 0.1875 0 L 0.1875 -1.5 L 0.5625 -1.5 L 0.5625 -1.296875 C 0.613281 -1.378906 0.660156 -1.441406 0.703125 -1.484375 C 0.753906 -1.523438 0.820312 -1.546875 0.90625 -1.546875 Z M 0.90625 -1.546875 "/></g></g></g><g fill="#2c7080" fill-opacity="1"><g transform="translate(60.182799, 26.497021)"><g><path d="M 0.890625 -1.546875 C 1.054688 -1.546875 1.195312 -1.503906 1.3125 -1.421875 C 1.425781 -1.347656 1.515625 -1.25 1.578125 -1.125 C 1.640625 -1.007812 1.671875 -0.890625 1.671875 -0.765625 C 1.671875 -0.617188 1.640625 -0.484375 1.578125 -0.359375 C 1.515625 -0.242188 1.421875 -0.148438 1.296875 -0.078125 C 1.179688 -0.00390625 1.046875 0.03125 0.890625 0.03125 C 0.753906 0.03125 0.628906 0.00390625 0.515625 -0.046875 C 0.398438 -0.0976562 0.300781 -0.1875 0.21875 -0.3125 C 0.144531 -0.4375 0.109375 -0.585938 0.109375 -0.765625 C 0.109375 -0.898438 0.140625 -1.023438 0.203125 -1.140625 C 0.265625 -1.253906 0.351562 -1.347656 0.46875 -1.421875 C 0.582031 -1.503906 0.722656 -1.546875 0.890625 -1.546875 Z M 0.53125 -0.75 C 0.53125 -0.601562 0.5625 -0.488281 0.625 -0.40625 C 0.695312 -0.332031 0.785156 -0.296875 0.890625 -0.296875 C 0.992188 -0.296875 1.082031 -0.332031 1.15625 -0.40625 C 1.226562 -0.476562 1.265625 -0.59375 1.265625 -0.75 C 1.265625 -0.894531 1.226562 -1.007812 1.15625 -1.09375 C 1.09375 -1.175781 1.003906 -1.21875 0.890625 -1.21875 C 0.785156 -1.21875 0.695312 -1.175781 0.625 -1.09375 C 0.5625 -1.007812 0.53125 -0.894531 0.53125 -0.75 Z M 0.53125 -0.75 "/></g></g></g><g fill="#2c7080" fill-opacity="1"><g transform="translate(62.228828, 26.497021)"><g><path d="M 0.59375 -0.734375 C 0.59375 -0.628906 0.59375 -0.550781 0.59375 -0.5 C 0.601562 -0.445312 0.617188 -0.410156 0.640625 -0.390625 C 0.648438 -0.347656 0.671875 -0.316406 0.703125 -0.296875 C 0.742188 -0.273438 0.789062 -0.265625 0.84375 -0.265625 C 0.914062 -0.265625 0.976562 -0.285156 1.03125 -0.328125 C 1.09375 -0.367188 1.128906 -0.414062 1.140625 -0.46875 C 1.160156 -0.53125 1.171875 -0.648438 1.171875 -0.828125 L 1.171875 -1.5 L 1.5625 -1.5 L 1.5625 0 L 1.203125 0 L 1.203125 -0.234375 L 1.1875 -0.234375 C 1.132812 -0.140625 1.0625 -0.0703125 0.96875 -0.03125 C 0.882812 0.0078125 0.796875 0.03125 0.703125 0.03125 C 0.617188 0.03125 0.535156 0.015625 0.453125 -0.015625 C 0.378906 -0.046875 0.320312 -0.0976562 0.28125 -0.171875 C 0.25 -0.210938 0.226562 -0.257812 0.21875 -0.3125 C 0.207031 -0.375 0.203125 -0.445312 0.203125 -0.53125 L 0.203125 -1.5 L 0.59375 -1.5 Z M 0.59375 -0.734375 "/></g></g></g><g fill="#2c7080" fill-opacity="1"><g transform="translate(64.274857, 26.497021)"><g><path d="M 1.03125 -1.546875 C 1.144531 -1.546875 1.25 -1.515625 1.34375 -1.453125 C 1.4375 -1.390625 1.515625 -1.296875 1.578125 -1.171875 C 1.640625 -1.054688 1.671875 -0.910156 1.671875 -0.734375 C 1.671875 -0.566406 1.640625 -0.425781 1.578125 -0.3125 C 1.523438 -0.195312 1.445312 -0.109375 1.34375 -0.046875 C 1.25 0.00390625 1.144531 0.03125 1.03125 0.03125 C 0.863281 0.03125 0.71875 -0.0351562 0.59375 -0.171875 L 0.59375 0.578125 L 0.203125 0.578125 L 0.203125 -1.5 L 0.5625 -1.5 L 0.5625 -1.28125 L 0.578125 -1.28125 C 0.617188 -1.351562 0.679688 -1.414062 0.765625 -1.46875 C 0.847656 -1.519531 0.9375 -1.546875 1.03125 -1.546875 Z M 0.625 -0.96875 C 0.601562 -0.914062 0.59375 -0.832031 0.59375 -0.71875 C 0.59375 -0.570312 0.625 -0.457031 0.6875 -0.375 C 0.75 -0.300781 0.828125 -0.265625 0.921875 -0.265625 C 1.046875 -0.265625 1.132812 -0.3125 1.1875 -0.40625 C 1.238281 -0.5 1.265625 -0.613281 1.265625 -0.75 C 1.265625 -0.914062 1.234375 -1.035156 1.171875 -1.109375 C 1.109375 -1.179688 1.03125 -1.21875 0.9375 -1.21875 C 0.875 -1.21875 0.8125 -1.195312 0.75 -1.15625 C 0.695312 -1.113281 0.65625 -1.050781 0.625 -0.96875 Z M 0.625 -0.96875 "/></g></g></g><g fill="#2c7080" fill-opacity="1"><g transform="translate(66.320885, 26.497021)"><g/></g></g><g fill="#2c7080" fill-opacity="1"><g transform="translate(67.400542, 26.497021)"><g><path d="M 1.140625 0 L 0.75 0 L 0.75 -1.5 C 0.59375 -1.363281 0.421875 -1.265625 0.234375 -1.203125 L 0.234375 -1.5625 C 0.335938 -1.601562 0.445312 -1.664062 0.5625 -1.75 C 0.6875 -1.84375 0.769531 -1.957031 0.8125 -2.09375 L 1.140625 -2.09375 Z M 1.140625 0 "/></g></g></g><g fill="#2c7080" fill-opacity="1"><g transform="translate(69.286962, 26.497021)"><g><path d="M 0.796875 -2.09375 C 1.023438 -2.09375 1.191406 -2 1.296875 -1.8125 C 1.410156 -1.632812 1.46875 -1.375 1.46875 -1.03125 C 1.46875 -0.320312 1.242188 0.03125 0.796875 0.03125 C 0.347656 0.03125 0.125 -0.304688 0.125 -0.984375 L 0.125 -1.0625 C 0.125 -1.382812 0.175781 -1.632812 0.28125 -1.8125 C 0.382812 -2 0.554688 -2.09375 0.796875 -2.09375 Z M 0.546875 -1.03125 C 0.546875 -0.851562 0.550781 -0.710938 0.5625 -0.609375 C 0.570312 -0.515625 0.59375 -0.4375 0.625 -0.375 C 0.664062 -0.320312 0.722656 -0.296875 0.796875 -0.296875 C 0.859375 -0.296875 0.90625 -0.316406 0.9375 -0.359375 C 0.976562 -0.410156 1.007812 -0.488281 1.03125 -0.59375 C 1.050781 -0.695312 1.0625 -0.84375 1.0625 -1.03125 C 1.0625 -1.21875 1.050781 -1.363281 1.03125 -1.46875 C 1.007812 -1.570312 0.976562 -1.644531 0.9375 -1.6875 C 0.90625 -1.738281 0.859375 -1.765625 0.796875 -1.765625 C 0.734375 -1.765625 0.679688 -1.738281 0.640625 -1.6875 C 0.609375 -1.644531 0.582031 -1.566406 0.5625 -1.453125 C 0.550781 -1.347656 0.546875 -1.207031 0.546875 -1.03125 Z M 0.546875 -1.03125 "/></g></g></g></svg>