<?xml version="1.0" standalone="no"?>
<svg xmlns:xlink="http://www.w3.org/1999/xlink" id="wave" style="transform:rotate(0deg); transition: 0.3s" viewBox="0 0 1440 100" version="1.1" xmlns="http://www.w3.org/2000/svg"><defs><linearGradient id="sw-gradient-0" x1="0" x2="0" y1="1" y2="0"><stop stop-color="rgba(253, 196, 53, 1)" offset="0%"/><stop stop-color="rgba(253, 196, 53, 1)" offset="100%"/></linearGradient></defs><path style="transform:translate(0, 0px); opacity:1" fill="url(#sw-gradient-0)" d="M0,50L20,46.7C40,43,80,37,120,31.7C160,27,200,23,240,23.3C280,23,320,27,360,23.3C400,20,440,10,480,5C520,0,560,0,600,6.7C640,13,680,27,720,30C760,33,800,27,840,31.7C880,37,920,53,960,53.3C1000,53,1040,37,1080,26.7C1120,17,1160,13,1200,11.7C1240,10,1280,10,1320,10C1360,10,1400,10,1440,10C1480,10,1520,10,1560,11.7C1600,13,1640,17,1680,30C1720,43,1760,67,1800,66.7C1840,67,1880,43,1920,31.7C1960,20,2000,20,2040,18.3C2080,17,2120,13,2160,21.7C2200,30,2240,50,2280,56.7C2320,63,2360,57,2400,45C2440,33,2480,17,2520,21.7C2560,27,2600,53,2640,65C2680,77,2720,73,2760,70C2800,67,2840,63,2860,61.7L2880,60L2880,100L2860,100C2840,100,2800,100,2760,100C2720,100,2680,100,2640,100C2600,100,2560,100,2520,100C2480,100,2440,100,2400,100C2360,100,2320,100,2280,100C2240,100,2200,100,2160,100C2120,100,2080,100,2040,100C2000,100,1960,100,1920,100C1880,100,1840,100,1800,100C1760,100,1720,100,1680,100C1640,100,1600,100,1560,100C1520,100,1480,100,1440,100C1400,100,1360,100,1320,100C1280,100,1240,100,1200,100C1160,100,1120,100,1080,100C1040,100,1000,100,960,100C920,100,880,100,840,100C800,100,760,100,720,100C680,100,640,100,600,100C560,100,520,100,480,100C440,100,400,100,360,100C320,100,280,100,240,100C200,100,160,100,120,100C80,100,40,100,20,100L0,100Z"/></svg>