<svg xmlns="http://www.w3.org/2000/svg" xmlns:xlink="http://www.w3.org/1999/xlink" width="500" zoomAndPan="magnify" viewBox="0 0 375 374.999991" height="500" preserveAspectRatio="xMidYMid meet" version="1.0"><defs><g/><clipPath id="7e5f72f18d"><path d="M 75.878906 171 L 143 171 L 143 228.230469 L 75.878906 228.230469 Z M 75.878906 171 " clip-rule="nonzero"/></clipPath><clipPath id="c0b44c1f9a"><path d="M 79 146.480469 L 157.628906 146.480469 L 157.628906 220 L 79 220 Z M 79 146.480469 " clip-rule="nonzero"/></clipPath></defs><g clip-path="url(#7e5f72f18d)"><path fill="#2c7080" d="M 120.855469 203.554688 C 120.765625 203.308594 120.675781 203.0625 120.582031 202.804688 L 116.859375 192.59375 C 118.160156 192.832031 119.433594 192.953125 120.6875 192.953125 C 122.441406 192.953125 124.035156 192.6875 125.46875 192.160156 C 126.898438 191.628906 127.980469 190.8125 128.714844 189.707031 C 129.449219 188.597656 129.816406 187.433594 129.816406 186.203125 C 129.816406 185.171875 129.539062 184.261719 128.984375 183.480469 C 128.429688 182.699219 127.558594 182.113281 126.371094 181.730469 C 125.179688 181.347656 123.34375 181.152344 120.867188 181.152344 C 120.023438 181.152344 119.152344 181.171875 118.25 181.207031 C 117.710938 181.230469 103.308594 181.246094 91.523438 181.265625 L 79.015625 171.761719 C 77 176.609375 75.886719 181.925781 75.886719 187.503906 C 75.886719 210.160156 94.25 228.523438 116.902344 228.523438 C 126.453125 228.523438 135.242188 225.261719 142.214844 219.785156 L 120.855469 203.554688 " fill-opacity="1" fill-rule="nonzero"/></g><g clip-path="url(#c0b44c1f9a)"><path fill="#fdc435" d="M 116.902344 146.484375 C 100.15625 146.484375 85.753906 156.523438 79.382812 170.910156 C 89.460938 170.875 120.976562 170.757812 123.179688 170.757812 C 126.257812 170.757812 129 170.878906 131.40625 171.121094 C 133.210938 171.289062 134.851562 171.636719 136.332031 172.167969 C 137.808594 172.695312 139.054688 173.339844 140.066406 174.097656 C 141.074219 174.855469 141.917969 175.703125 142.589844 176.640625 C 143.265625 177.578125 143.789062 178.679688 144.160156 179.945312 C 144.535156 181.207031 144.71875 182.558594 144.71875 184.003906 C 144.71875 185.613281 144.515625 187.125 144.105469 188.53125 C 143.695312 189.941406 143.054688 191.261719 142.175781 192.503906 C 141.296875 193.742188 140.191406 194.8125 138.855469 195.714844 C 137.519531 196.617188 135.648438 197.535156 133.242188 198.476562 L 135.121094 203.058594 C 135.648438 204.332031 136.214844 205.632812 136.816406 206.957031 L 141.652344 217.53125 C 141.828125 217.902344 142.117188 218.574219 142.519531 219.542969 C 151.910156 212.023438 157.921875 200.46875 157.921875 187.503906 C 157.921875 164.851562 139.558594 146.484375 116.902344 146.484375 " fill-opacity="1" fill-rule="nonzero"/></g><path stroke-linecap="butt" transform="matrix(0, -0.75, 0.75, 0, 164.579305, 217.294863)" fill="none" stroke-linejoin="miter" d="M 0.00252504 1.998427 L 70.835863 1.998427 " stroke="#2c7080" stroke-width="4" stroke-opacity="1" stroke-miterlimit="4"/><g fill="#2c7080" fill-opacity="1"><g transform="translate(176.520051, 179.489914)"><g><path d="M 8.625 0.15625 C 5.976562 0.15625 3.925781 -0.71875 2.46875 -2.46875 C 1.289062 -3.894531 0.703125 -5.5625 0.703125 -7.46875 C 0.703125 -9.53125 1.28125 -11.296875 2.4375 -12.765625 C 3.894531 -14.585938 5.953125 -15.5 8.609375 -15.5 C 10.679688 -15.5 12.375 -15.007812 13.6875 -14.03125 C 15.007812 -13.050781 15.796875 -11.742188 16.046875 -10.109375 L 11.953125 -10.109375 C 11.953125 -10.859375 11.65625 -11.429688 11.0625 -11.828125 C 10.476562 -12.222656 9.742188 -12.421875 8.859375 -12.421875 C 7.578125 -12.421875 6.5625 -11.960938 5.8125 -11.046875 C 5.070312 -10.128906 4.703125 -8.9375 4.703125 -7.46875 C 4.703125 -6.09375 5.054688 -4.988281 5.765625 -4.15625 C 6.484375 -3.320312 7.429688 -2.90625 8.609375 -2.90625 C 9.710938 -2.90625 10.5625 -3.082031 11.15625 -3.4375 C 11.757812 -3.800781 12.207031 -4.414062 12.5 -5.28125 L 9.796875 -5.28125 L 9.796875 -8.21875 L 15.9375 -8.21875 L 15.9375 0 L 13.03125 0 L 12.921875 -1.25 C 11.828125 -0.3125 10.394531 0.15625 8.625 0.15625 Z M 8.625 0.15625 "/></g></g></g><g fill="#2c7080" fill-opacity="1"><g transform="translate(193.648914, 179.489914)"><g><path d="M 14.40625 -9.828125 C 14.40625 -8.941406 14.175781 -8.066406 13.71875 -7.203125 C 13.257812 -6.335938 12.585938 -5.632812 11.703125 -5.09375 L 14.125 0 L 9.703125 0 L 7.625 -4.421875 L 5.21875 -4.421875 L 5.21875 0 L 1.21875 0 L 1.21875 -15.203125 L 8.296875 -15.203125 C 10.304688 -15.203125 11.828125 -14.6875 12.859375 -13.65625 C 13.890625 -12.625 14.40625 -11.347656 14.40625 -9.828125 Z M 5.21875 -7.46875 L 8.109375 -7.46875 C 8.785156 -7.46875 9.335938 -7.675781 9.765625 -8.09375 C 10.203125 -8.519531 10.421875 -9.085938 10.421875 -9.796875 C 10.421875 -10.515625 10.203125 -11.082031 9.765625 -11.5 C 9.335938 -11.925781 8.785156 -12.140625 8.109375 -12.140625 L 5.21875 -12.140625 Z M 5.21875 -7.46875 "/></g></g></g><g fill="#2c7080" fill-opacity="1"><g transform="translate(208.620429, 179.489914)"><g><path d="M 8.53125 0.15625 C 5.875 0.15625 3.835938 -0.71875 2.421875 -2.46875 C 1.273438 -3.875 0.703125 -5.539062 0.703125 -7.46875 C 0.703125 -9.507812 1.273438 -11.273438 2.421875 -12.765625 C 3.835938 -14.585938 5.875 -15.5 8.53125 -15.5 C 11.164062 -15.5 13.207031 -14.585938 14.65625 -12.765625 C 15.789062 -11.304688 16.359375 -9.539062 16.359375 -7.46875 C 16.359375 -5.519531 15.789062 -3.851562 14.65625 -2.46875 C 13.207031 -0.71875 11.164062 0.15625 8.53125 0.15625 Z M 5.734375 -4.15625 C 6.421875 -3.320312 7.351562 -2.90625 8.53125 -2.90625 C 9.707031 -2.90625 10.632812 -3.320312 11.3125 -4.15625 C 12 -4.988281 12.34375 -6.09375 12.34375 -7.46875 C 12.34375 -8.914062 12.003906 -10.101562 11.328125 -11.03125 C 10.660156 -11.957031 9.726562 -12.421875 8.53125 -12.421875 C 7.332031 -12.421875 6.394531 -11.957031 5.71875 -11.03125 C 5.039062 -10.101562 4.703125 -8.914062 4.703125 -7.46875 C 4.703125 -6.09375 5.046875 -4.988281 5.734375 -4.15625 Z M 5.734375 -4.15625 "/></g></g></g><g fill="#2c7080" fill-opacity="1"><g transform="translate(225.671324, 179.489914)"><g><path d="M 8.390625 0.15625 C 5.765625 0.15625 3.828125 -0.648438 2.578125 -2.265625 C 1.585938 -3.523438 1.09375 -5.128906 1.09375 -7.078125 L 1.09375 -15.203125 L 5.09375 -15.203125 L 5.09375 -7 C 5.09375 -4.269531 6.191406 -2.90625 8.390625 -2.90625 C 10.546875 -2.90625 11.625 -4.269531 11.625 -7 L 11.625 -15.203125 L 15.734375 -15.203125 L 15.734375 -7.078125 C 15.734375 -5.117188 15.238281 -3.515625 14.25 -2.265625 C 12.96875 -0.648438 11.015625 0.15625 8.390625 0.15625 Z M 8.390625 0.15625 "/></g></g></g><g fill="#2c7080" fill-opacity="1"><g transform="translate(242.48829, 179.489914)"><g><path d="M 1.21875 0 L 1.21875 -15.203125 L 8.140625 -15.203125 C 10.148438 -15.203125 11.695312 -14.679688 12.78125 -13.640625 C 13.863281 -12.609375 14.40625 -11.335938 14.40625 -9.828125 C 14.40625 -8.316406 13.863281 -7.03125 12.78125 -5.96875 C 11.695312 -4.914062 10.148438 -4.390625 8.140625 -4.390625 L 5.21875 -4.390625 L 5.21875 0 Z M 5.21875 -7.46875 L 8.109375 -7.46875 C 8.785156 -7.46875 9.335938 -7.675781 9.765625 -8.09375 C 10.203125 -8.519531 10.421875 -9.085938 10.421875 -9.796875 C 10.421875 -10.515625 10.203125 -11.082031 9.765625 -11.5 C 9.335938 -11.925781 8.785156 -12.140625 8.109375 -12.140625 L 5.21875 -12.140625 Z M 5.21875 -7.46875 "/></g></g></g><g fill="#fdc435" fill-opacity="1"><g transform="translate(176.520051, 199.739912)"><g><path d="M 1.21875 0 L 1.21875 -15.203125 L 8.140625 -15.203125 C 10.148438 -15.203125 11.695312 -14.679688 12.78125 -13.640625 C 13.863281 -12.609375 14.40625 -11.335938 14.40625 -9.828125 C 14.40625 -8.316406 13.863281 -7.03125 12.78125 -5.96875 C 11.695312 -4.914062 10.148438 -4.390625 8.140625 -4.390625 L 5.21875 -4.390625 L 5.21875 0 Z M 5.21875 -7.46875 L 8.109375 -7.46875 C 8.785156 -7.46875 9.335938 -7.675781 9.765625 -8.09375 C 10.203125 -8.519531 10.421875 -9.085938 10.421875 -9.796875 C 10.421875 -10.515625 10.203125 -11.082031 9.765625 -11.5 C 9.335938 -11.925781 8.785156 -12.140625 8.109375 -12.140625 L 5.21875 -12.140625 Z M 5.21875 -7.46875 "/></g></g></g><g fill="#fdc435" fill-opacity="1"><g transform="translate(191.361606, 199.739912)"><g><path d="M 8.53125 0.15625 C 5.875 0.15625 3.835938 -0.71875 2.421875 -2.46875 C 1.273438 -3.875 0.703125 -5.539062 0.703125 -7.46875 C 0.703125 -9.507812 1.273438 -11.273438 2.421875 -12.765625 C 3.835938 -14.585938 5.875 -15.5 8.53125 -15.5 C 11.164062 -15.5 13.207031 -14.585938 14.65625 -12.765625 C 15.789062 -11.304688 16.359375 -9.539062 16.359375 -7.46875 C 16.359375 -5.519531 15.789062 -3.851562 14.65625 -2.46875 C 13.207031 -0.71875 11.164062 0.15625 8.53125 0.15625 Z M 5.734375 -4.15625 C 6.421875 -3.320312 7.351562 -2.90625 8.53125 -2.90625 C 9.707031 -2.90625 10.632812 -3.320312 11.3125 -4.15625 C 12 -4.988281 12.34375 -6.09375 12.34375 -7.46875 C 12.34375 -8.914062 12.003906 -10.101562 11.328125 -11.03125 C 10.660156 -11.957031 9.726562 -12.421875 8.53125 -12.421875 C 7.332031 -12.421875 6.394531 -11.957031 5.71875 -11.03125 C 5.039062 -10.101562 4.703125 -8.914062 4.703125 -7.46875 C 4.703125 -6.09375 5.046875 -4.988281 5.734375 -4.15625 Z M 5.734375 -4.15625 "/></g></g></g><g fill="#fdc435" fill-opacity="1"><g transform="translate(208.412501, 199.739912)"><g><path d="M 14.40625 -9.828125 C 14.40625 -8.941406 14.175781 -8.066406 13.71875 -7.203125 C 13.257812 -6.335938 12.585938 -5.632812 11.703125 -5.09375 L 14.125 0 L 9.703125 0 L 7.625 -4.421875 L 5.21875 -4.421875 L 5.21875 0 L 1.21875 0 L 1.21875 -15.203125 L 8.296875 -15.203125 C 10.304688 -15.203125 11.828125 -14.6875 12.859375 -13.65625 C 13.890625 -12.625 14.40625 -11.347656 14.40625 -9.828125 Z M 5.21875 -7.46875 L 8.109375 -7.46875 C 8.785156 -7.46875 9.335938 -7.675781 9.765625 -8.09375 C 10.203125 -8.519531 10.421875 -9.085938 10.421875 -9.796875 C 10.421875 -10.515625 10.203125 -11.082031 9.765625 -11.5 C 9.335938 -11.925781 8.785156 -12.140625 8.109375 -12.140625 L 5.21875 -12.140625 Z M 5.21875 -7.46875 "/></g></g></g><g fill="#fdc435" fill-opacity="1"><g transform="translate(223.384016, 199.739912)"><g><path d="M 8.703125 0 L 4.703125 0 L 4.703125 -12.140625 L 0.3125 -12.140625 L 0.3125 -15.203125 L 13.109375 -15.203125 L 13.109375 -12.140625 L 8.703125 -12.140625 Z M 8.703125 0 "/></g></g></g><g fill="#fdc435" fill-opacity="1"><g transform="translate(236.795999, 199.739912)"><g><path d="M 1.21875 -15.203125 L 12.65625 -15.203125 L 12.65625 -12.140625 L 5.21875 -12.140625 L 5.21875 -8.375 L 11.625 -8.375 L 11.625 -5.25 L 5.21875 -5.25 L 5.21875 0 L 1.21875 0 Z M 1.21875 -15.203125 "/></g></g></g><g fill="#fdc435" fill-opacity="1"><g transform="translate(250.026031, 199.739912)"><g><path d="M 8.53125 0.15625 C 5.875 0.15625 3.835938 -0.71875 2.421875 -2.46875 C 1.273438 -3.875 0.703125 -5.539062 0.703125 -7.46875 C 0.703125 -9.507812 1.273438 -11.273438 2.421875 -12.765625 C 3.835938 -14.585938 5.875 -15.5 8.53125 -15.5 C 11.164062 -15.5 13.207031 -14.585938 14.65625 -12.765625 C 15.789062 -11.304688 16.359375 -9.539062 16.359375 -7.46875 C 16.359375 -5.519531 15.789062 -3.851562 14.65625 -2.46875 C 13.207031 -0.71875 11.164062 0.15625 8.53125 0.15625 Z M 5.734375 -4.15625 C 6.421875 -3.320312 7.351562 -2.90625 8.53125 -2.90625 C 9.707031 -2.90625 10.632812 -3.320312 11.3125 -4.15625 C 12 -4.988281 12.34375 -6.09375 12.34375 -7.46875 C 12.34375 -8.914062 12.003906 -10.101562 11.328125 -11.03125 C 10.660156 -11.957031 9.726562 -12.421875 8.53125 -12.421875 C 7.332031 -12.421875 6.394531 -11.957031 5.71875 -11.03125 C 5.039062 -10.101562 4.703125 -8.914062 4.703125 -7.46875 C 4.703125 -6.09375 5.046875 -4.988281 5.734375 -4.15625 Z M 5.734375 -4.15625 "/></g></g></g><g fill="#fdc435" fill-opacity="1"><g transform="translate(267.076926, 199.739912)"><g><path d="M 1.21875 -15.203125 L 5.21875 -15.203125 L 5.21875 -3.0625 L 12.6875 -3.0625 L 12.6875 0 L 1.21875 0 Z M 1.21875 -15.203125 "/></g></g></g><g fill="#fdc435" fill-opacity="1"><g transform="translate(280.33296, 199.739912)"><g><path d="M 1.25 -15.203125 L 5.25 -15.203125 L 5.25 0 L 1.25 0 Z M 1.25 -15.203125 "/></g></g></g><g fill="#fdc435" fill-opacity="1"><g transform="translate(286.831018, 199.739912)"><g><path d="M 8.53125 0.15625 C 5.875 0.15625 3.835938 -0.71875 2.421875 -2.46875 C 1.273438 -3.875 0.703125 -5.539062 0.703125 -7.46875 C 0.703125 -9.507812 1.273438 -11.273438 2.421875 -12.765625 C 3.835938 -14.585938 5.875 -15.5 8.53125 -15.5 C 11.164062 -15.5 13.207031 -14.585938 14.65625 -12.765625 C 15.789062 -11.304688 16.359375 -9.539062 16.359375 -7.46875 C 16.359375 -5.519531 15.789062 -3.851562 14.65625 -2.46875 C 13.207031 -0.71875 11.164062 0.15625 8.53125 0.15625 Z M 5.734375 -4.15625 C 6.421875 -3.320312 7.351562 -2.90625 8.53125 -2.90625 C 9.707031 -2.90625 10.632812 -3.320312 11.3125 -4.15625 C 12 -4.988281 12.34375 -6.09375 12.34375 -7.46875 C 12.34375 -8.914062 12.003906 -10.101562 11.328125 -11.03125 C 10.660156 -11.957031 9.726562 -12.421875 8.53125 -12.421875 C 7.332031 -12.421875 6.394531 -11.957031 5.71875 -11.03125 C 5.039062 -10.101562 4.703125 -8.914062 4.703125 -7.46875 C 4.703125 -6.09375 5.046875 -4.988281 5.734375 -4.15625 Z M 5.734375 -4.15625 "/></g></g></g><g fill="#2c7080" fill-opacity="1"><g transform="translate(177.568879, 215.034535)"><g><path d="M 5.890625 -5.953125 L 3.765625 -5.953125 L 3.765625 0 L 2.328125 0 L 2.328125 -5.953125 L 0.203125 -5.953125 L 0.203125 -7.15625 L 5.890625 -7.15625 Z M 5.890625 -5.953125 "/></g></g></g><g fill="#2c7080" fill-opacity="1"><g transform="translate(184.616462, 215.034535)"><g><path d="M 2.703125 -5.296875 C 3.523438 -5.296875 4.140625 -5.023438 4.546875 -4.484375 C 4.953125 -3.953125 5.15625 -3.191406 5.15625 -2.203125 L 1.71875 -2.203125 C 1.726562 -1.859375 1.828125 -1.5625 2.015625 -1.3125 C 2.210938 -1.0625 2.488281 -0.9375 2.84375 -0.9375 C 3.070312 -0.9375 3.257812 -0.992188 3.40625 -1.109375 C 3.550781 -1.222656 3.65625 -1.40625 3.71875 -1.65625 L 5.09375 -1.421875 C 4.914062 -0.910156 4.632812 -0.523438 4.25 -0.265625 C 3.863281 -0.00390625 3.390625 0.125 2.828125 0.125 C 1.992188 0.125 1.363281 -0.125 0.9375 -0.625 C 0.738281 -0.863281 0.582031 -1.160156 0.46875 -1.515625 C 0.363281 -1.867188 0.3125 -2.21875 0.3125 -2.5625 C 0.3125 -3.03125 0.394531 -3.472656 0.5625 -3.890625 C 0.738281 -4.304688 1.003906 -4.644531 1.359375 -4.90625 C 1.722656 -5.164062 2.171875 -5.296875 2.703125 -5.296875 Z M 1.75 -3.046875 L 3.796875 -3.046875 C 3.796875 -3.460938 3.691406 -3.765625 3.484375 -3.953125 C 3.285156 -4.148438 3.046875 -4.25 2.765625 -4.25 C 2.453125 -4.25 2.203125 -4.132812 2.015625 -3.90625 C 1.835938 -3.675781 1.75 -3.390625 1.75 -3.046875 Z M 1.75 -3.046875 "/></g></g></g><g fill="#2c7080" fill-opacity="1"><g transform="translate(191.114271, 215.034535)"><g><path d="M 1.046875 -4.515625 C 1.484375 -5.035156 2.113281 -5.296875 2.9375 -5.296875 C 4.175781 -5.296875 4.945312 -4.75 5.25 -3.65625 L 3.90625 -3.40625 C 3.789062 -3.957031 3.472656 -4.234375 2.953125 -4.234375 C 2.609375 -4.234375 2.332031 -4.113281 2.125 -3.875 C 1.925781 -3.632812 1.828125 -3.242188 1.828125 -2.703125 C 1.828125 -2.171875 1.910156 -1.753906 2.078125 -1.453125 C 2.253906 -1.148438 2.554688 -1 2.984375 -1 C 3.253906 -1 3.46875 -1.078125 3.625 -1.234375 C 3.789062 -1.398438 3.90625 -1.648438 3.96875 -1.984375 L 5.3125 -1.765625 C 5.039062 -0.503906 4.238281 0.125 2.90625 0.125 C 2.125 0.125 1.519531 -0.113281 1.09375 -0.59375 C 0.875 -0.84375 0.707031 -1.144531 0.59375 -1.5 C 0.476562 -1.851562 0.421875 -2.21875 0.421875 -2.59375 C 0.421875 -2.976562 0.472656 -3.335938 0.578125 -3.671875 C 0.679688 -4.003906 0.835938 -4.285156 1.046875 -4.515625 Z M 1.046875 -4.515625 "/></g></g></g><g fill="#2c7080" fill-opacity="1"><g transform="translate(197.61208, 215.034535)"><g><path d="M 2.078125 -4.515625 C 2.316406 -4.796875 2.5625 -4.992188 2.8125 -5.109375 C 3.070312 -5.234375 3.351562 -5.296875 3.65625 -5.296875 C 3.9375 -5.296875 4.1875 -5.253906 4.40625 -5.171875 C 4.632812 -5.085938 4.820312 -4.972656 4.96875 -4.828125 C 5.269531 -4.535156 5.421875 -3.992188 5.421875 -3.203125 L 5.421875 0 L 4.046875 0 L 4.046875 -2.921875 C 4.046875 -3.234375 4.023438 -3.484375 3.984375 -3.671875 C 3.953125 -3.859375 3.875 -4 3.75 -4.09375 C 3.625 -4.195312 3.441406 -4.25 3.203125 -4.25 C 2.765625 -4.25 2.46875 -4.109375 2.3125 -3.828125 C 2.15625 -3.546875 2.078125 -3.171875 2.078125 -2.703125 L 2.078125 0 L 0.703125 0 L 0.703125 -7.15625 L 2.078125 -7.15625 Z M 2.078125 -4.515625 "/></g></g></g><g fill="#2c7080" fill-opacity="1"><g transform="translate(204.659663, 215.034535)"><g/></g></g><g fill="#2c7080" fill-opacity="1"><g transform="translate(208.378561, 215.034535)"><g><path d="M 7.1875 0 L 5.609375 0 L 4.984375 -1.625 L 2.125 -1.625 L 1.546875 0 L 0 0 L 2.796875 -7.15625 L 4.3125 -7.15625 Z M 2.5625 -2.828125 L 4.53125 -2.828125 L 3.546875 -5.484375 Z M 2.5625 -2.828125 "/></g></g></g><g fill="#2c7080" fill-opacity="1"><g transform="translate(216.535706, 215.034535)"><g><path d="M 2.609375 -5.296875 C 3.253906 -5.296875 3.757812 -5.1875 4.125 -4.96875 C 4.5 -4.757812 4.757812 -4.414062 4.90625 -3.9375 L 3.59375 -3.6875 C 3.539062 -3.90625 3.4375 -4.0625 3.28125 -4.15625 C 3.125 -4.257812 2.90625 -4.3125 2.625 -4.3125 C 2 -4.3125 1.6875 -4.171875 1.6875 -3.890625 C 1.6875 -3.753906 1.785156 -3.644531 1.984375 -3.5625 C 2.191406 -3.476562 2.488281 -3.390625 2.875 -3.296875 C 3.351562 -3.191406 3.738281 -3.082031 4.03125 -2.96875 C 4.332031 -2.863281 4.578125 -2.703125 4.765625 -2.484375 C 4.960938 -2.265625 5.0625 -1.976562 5.0625 -1.625 C 5.0625 -1.332031 4.976562 -1.050781 4.8125 -0.78125 C 4.65625 -0.519531 4.398438 -0.300781 4.046875 -0.125 C 3.691406 0.0390625 3.242188 0.125 2.703125 0.125 C 2.097656 0.125 1.5625 -0.00390625 1.09375 -0.265625 C 0.632812 -0.523438 0.347656 -0.929688 0.234375 -1.484375 L 1.59375 -1.6875 C 1.726562 -1.132812 2.097656 -0.859375 2.703125 -0.859375 C 2.941406 -0.859375 3.164062 -0.898438 3.375 -0.984375 C 3.59375 -1.066406 3.703125 -1.21875 3.703125 -1.4375 C 3.703125 -1.570312 3.648438 -1.664062 3.546875 -1.71875 C 3.453125 -1.78125 3.300781 -1.832031 3.09375 -1.875 C 2.457031 -2.019531 1.960938 -2.148438 1.609375 -2.265625 C 1.253906 -2.390625 0.96875 -2.5625 0.75 -2.78125 C 0.53125 -3.007812 0.421875 -3.316406 0.421875 -3.703125 C 0.421875 -4.242188 0.625 -4.644531 1.03125 -4.90625 C 1.445312 -5.164062 1.972656 -5.296875 2.609375 -5.296875 Z M 2.609375 -5.296875 "/></g></g></g><g fill="#2c7080" fill-opacity="1"><g transform="translate(223.033515, 215.034535)"><g><path d="M 3.5625 -5.296875 C 3.945312 -5.296875 4.300781 -5.191406 4.625 -4.984375 C 4.957031 -4.785156 5.222656 -4.476562 5.421875 -4.0625 C 5.628906 -3.644531 5.734375 -3.140625 5.734375 -2.546875 C 5.734375 -1.960938 5.632812 -1.46875 5.4375 -1.0625 C 5.25 -0.664062 4.988281 -0.367188 4.65625 -0.171875 C 4.320312 0.0234375 3.957031 0.125 3.5625 0.125 C 2.976562 0.125 2.472656 -0.113281 2.046875 -0.59375 L 2.046875 1.96875 L 0.6875 1.96875 L 0.6875 -5.1875 L 1.953125 -5.1875 L 1.953125 -4.421875 L 1.984375 -4.421875 C 2.140625 -4.660156 2.359375 -4.863281 2.640625 -5.03125 C 2.921875 -5.207031 3.226562 -5.296875 3.5625 -5.296875 Z M 2.15625 -3.359375 C 2.082031 -3.148438 2.046875 -2.859375 2.046875 -2.484375 C 2.046875 -1.960938 2.148438 -1.570312 2.359375 -1.3125 C 2.578125 -1.0625 2.851562 -0.9375 3.1875 -0.9375 C 3.59375 -0.9375 3.882812 -1.09375 4.0625 -1.40625 C 4.238281 -1.726562 4.328125 -2.125 4.328125 -2.59375 C 4.328125 -3.15625 4.222656 -3.5625 4.015625 -3.8125 C 3.804688 -4.070312 3.546875 -4.203125 3.234375 -4.203125 C 2.992188 -4.203125 2.773438 -4.128906 2.578125 -3.984375 C 2.390625 -3.835938 2.25 -3.628906 2.15625 -3.359375 Z M 2.15625 -3.359375 "/></g></g></g><g fill="#2c7080" fill-opacity="1"><g transform="translate(230.081098, 215.034535)"><g><path d="M 2.09375 -5.890625 L 0.71875 -5.890625 L 0.71875 -7.15625 L 2.09375 -7.15625 Z M 2.09375 0 L 0.71875 0 L 0.71875 -5.1875 L 2.09375 -5.1875 Z M 2.09375 0 "/></g></g></g><g fill="#2c7080" fill-opacity="1"><g transform="translate(233.799993, 215.034535)"><g><path d="M 3.125 -5.296875 C 3.269531 -5.296875 3.421875 -5.269531 3.578125 -5.21875 C 3.742188 -5.175781 3.890625 -5.117188 4.015625 -5.046875 L 3.59375 -3.84375 C 3.351562 -3.988281 3.140625 -4.0625 2.953125 -4.0625 C 2.691406 -4.0625 2.492188 -3.972656 2.359375 -3.796875 C 2.222656 -3.628906 2.132812 -3.382812 2.09375 -3.0625 C 2.050781 -2.75 2.03125 -2.328125 2.03125 -1.796875 L 2.03125 0 L 0.65625 0 L 0.65625 -5.1875 L 1.9375 -5.1875 L 1.9375 -4.453125 L 1.953125 -4.453125 C 2.117188 -4.734375 2.285156 -4.941406 2.453125 -5.078125 C 2.617188 -5.222656 2.84375 -5.296875 3.125 -5.296875 Z M 3.125 -5.296875 "/></g></g></g><g fill="#2c7080" fill-opacity="1"><g transform="translate(238.628449, 215.034535)"><g><path d="M 2.703125 -5.296875 C 3.523438 -5.296875 4.140625 -5.023438 4.546875 -4.484375 C 4.953125 -3.953125 5.15625 -3.191406 5.15625 -2.203125 L 1.71875 -2.203125 C 1.726562 -1.859375 1.828125 -1.5625 2.015625 -1.3125 C 2.210938 -1.0625 2.488281 -0.9375 2.84375 -0.9375 C 3.070312 -0.9375 3.257812 -0.992188 3.40625 -1.109375 C 3.550781 -1.222656 3.65625 -1.40625 3.71875 -1.65625 L 5.09375 -1.421875 C 4.914062 -0.910156 4.632812 -0.523438 4.25 -0.265625 C 3.863281 -0.00390625 3.390625 0.125 2.828125 0.125 C 1.992188 0.125 1.363281 -0.125 0.9375 -0.625 C 0.738281 -0.863281 0.582031 -1.160156 0.46875 -1.515625 C 0.363281 -1.867188 0.3125 -2.21875 0.3125 -2.5625 C 0.3125 -3.03125 0.394531 -3.472656 0.5625 -3.890625 C 0.738281 -4.304688 1.003906 -4.644531 1.359375 -4.90625 C 1.722656 -5.164062 2.171875 -5.296875 2.703125 -5.296875 Z M 1.75 -3.046875 L 3.796875 -3.046875 C 3.796875 -3.460938 3.691406 -3.765625 3.484375 -3.953125 C 3.285156 -4.148438 3.046875 -4.25 2.765625 -4.25 C 2.453125 -4.25 2.203125 -4.132812 2.015625 -3.90625 C 1.835938 -3.675781 1.75 -3.390625 1.75 -3.046875 Z M 1.75 -3.046875 "/></g></g></g><g fill="#2c7080" fill-opacity="1"><g transform="translate(245.126256, 215.034535)"><g><path d="M 3.703125 -5.296875 C 4.003906 -5.296875 4.269531 -5.242188 4.5 -5.140625 C 4.726562 -5.035156 4.910156 -4.914062 5.046875 -4.78125 C 5.203125 -4.601562 5.304688 -4.394531 5.359375 -4.15625 C 5.410156 -3.925781 5.4375 -3.664062 5.4375 -3.375 L 5.4375 0 L 4.0625 0 L 4.0625 -2.828125 C 4.0625 -3.304688 4.003906 -3.660156 3.890625 -3.890625 C 3.785156 -4.128906 3.5625 -4.25 3.21875 -4.25 C 2.894531 -4.25 2.640625 -4.15625 2.453125 -3.96875 C 2.273438 -3.78125 2.171875 -3.5625 2.140625 -3.3125 C 2.117188 -3.15625 2.101562 -3.015625 2.09375 -2.890625 C 2.082031 -2.765625 2.078125 -2.617188 2.078125 -2.453125 L 2.078125 0 L 0.703125 0 L 0.703125 -5.1875 L 2.015625 -5.1875 L 2.015625 -4.421875 C 2.160156 -4.640625 2.375 -4.835938 2.65625 -5.015625 C 2.945312 -5.203125 3.296875 -5.296875 3.703125 -5.296875 Z M 3.703125 -5.296875 "/></g></g></g><g fill="#2c7080" fill-opacity="1"><g transform="translate(252.173836, 215.034535)"><g><path d="M 2.15625 -5.1875 L 3.09375 -5.1875 L 3.09375 -4.09375 L 2.15625 -4.09375 L 2.15625 -1.8125 C 2.15625 -1.59375 2.160156 -1.425781 2.171875 -1.3125 C 2.191406 -1.207031 2.226562 -1.128906 2.28125 -1.078125 C 2.34375 -1.035156 2.429688 -1.015625 2.546875 -1.015625 C 2.679688 -1.015625 2.863281 -1.0625 3.09375 -1.15625 L 3.203125 -0.09375 C 3.066406 -0.0195312 2.898438 0.03125 2.703125 0.0625 C 2.503906 0.101562 2.3125 0.125 2.125 0.125 C 1.863281 0.125 1.632812 0.0820312 1.4375 0 C 1.238281 -0.09375 1.09375 -0.210938 1 -0.359375 C 0.894531 -0.523438 0.832031 -0.707031 0.8125 -0.90625 C 0.789062 -1.113281 0.78125 -1.375 0.78125 -1.6875 L 0.78125 -4.09375 L 0.15625 -4.09375 L 0.15625 -5.1875 L 0.78125 -5.1875 L 0.78125 -6.203125 L 2.15625 -7.015625 Z M 2.15625 -5.1875 "/></g></g></g><g fill="#2c7080" fill-opacity="1"><g transform="translate(256.442516, 215.034535)"><g><path d="M 2.609375 -5.296875 C 3.253906 -5.296875 3.757812 -5.1875 4.125 -4.96875 C 4.5 -4.757812 4.757812 -4.414062 4.90625 -3.9375 L 3.59375 -3.6875 C 3.539062 -3.90625 3.4375 -4.0625 3.28125 -4.15625 C 3.125 -4.257812 2.90625 -4.3125 2.625 -4.3125 C 2 -4.3125 1.6875 -4.171875 1.6875 -3.890625 C 1.6875 -3.753906 1.785156 -3.644531 1.984375 -3.5625 C 2.191406 -3.476562 2.488281 -3.390625 2.875 -3.296875 C 3.351562 -3.191406 3.738281 -3.082031 4.03125 -2.96875 C 4.332031 -2.863281 4.578125 -2.703125 4.765625 -2.484375 C 4.960938 -2.265625 5.0625 -1.976562 5.0625 -1.625 C 5.0625 -1.332031 4.976562 -1.050781 4.8125 -0.78125 C 4.65625 -0.519531 4.398438 -0.300781 4.046875 -0.125 C 3.691406 0.0390625 3.242188 0.125 2.703125 0.125 C 2.097656 0.125 1.5625 -0.00390625 1.09375 -0.265625 C 0.632812 -0.523438 0.347656 -0.929688 0.234375 -1.484375 L 1.59375 -1.6875 C 1.726562 -1.132812 2.097656 -0.859375 2.703125 -0.859375 C 2.941406 -0.859375 3.164062 -0.898438 3.375 -0.984375 C 3.59375 -1.066406 3.703125 -1.21875 3.703125 -1.4375 C 3.703125 -1.570312 3.648438 -1.664062 3.546875 -1.71875 C 3.453125 -1.78125 3.300781 -1.832031 3.09375 -1.875 C 2.457031 -2.019531 1.960938 -2.148438 1.609375 -2.265625 C 1.253906 -2.390625 0.96875 -2.5625 0.75 -2.78125 C 0.53125 -3.007812 0.421875 -3.316406 0.421875 -3.703125 C 0.421875 -4.242188 0.625 -4.644531 1.03125 -4.90625 C 1.445312 -5.164062 1.972656 -5.296875 2.609375 -5.296875 Z M 2.609375 -5.296875 "/></g></g></g><g fill="#2c7080" fill-opacity="1"><g transform="translate(262.940322, 215.034535)"><g/></g></g><g fill="#2c7080" fill-opacity="1"><g transform="translate(266.659217, 215.034535)"><g><path d="M 4.03125 -7.28125 C 4.851562 -7.28125 5.523438 -7.109375 6.046875 -6.765625 C 6.578125 -6.421875 6.921875 -5.894531 7.078125 -5.1875 L 5.640625 -4.90625 C 5.535156 -5.28125 5.335938 -5.5625 5.046875 -5.75 C 4.753906 -5.945312 4.421875 -6.046875 4.046875 -6.046875 C 3.648438 -6.046875 3.304688 -5.96875 3.015625 -5.8125 C 2.722656 -5.664062 2.488281 -5.457031 2.3125 -5.1875 C 2.082031 -4.8125 1.96875 -4.300781 1.96875 -3.65625 C 1.96875 -2.90625 2.132812 -2.296875 2.46875 -1.828125 C 2.8125 -1.359375 3.328125 -1.125 4.015625 -1.125 C 4.304688 -1.125 4.597656 -1.175781 4.890625 -1.28125 C 5.191406 -1.394531 5.460938 -1.546875 5.703125 -1.734375 L 5.703125 -2.625 L 4.0625 -2.625 L 4.0625 -3.84375 L 7.171875 -3.84375 L 7.171875 -0.984375 C 6.804688 -0.648438 6.34375 -0.378906 5.78125 -0.171875 C 5.21875 0.0234375 4.660156 0.125 4.109375 0.125 C 3.304688 0.125 2.632812 -0.0390625 2.09375 -0.375 C 1.550781 -0.707031 1.144531 -1.15625 0.875 -1.71875 C 0.613281 -2.28125 0.484375 -2.90625 0.484375 -3.59375 C 0.484375 -4.257812 0.613281 -4.867188 0.875 -5.421875 C 1.132812 -5.984375 1.53125 -6.429688 2.0625 -6.765625 C 2.59375 -7.109375 3.25 -7.28125 4.03125 -7.28125 Z M 4.03125 -7.28125 "/></g></g></g><g fill="#2c7080" fill-opacity="1"><g transform="translate(275.376147, 215.034535)"><g><path d="M 3.125 -5.296875 C 3.269531 -5.296875 3.421875 -5.269531 3.578125 -5.21875 C 3.742188 -5.175781 3.890625 -5.117188 4.015625 -5.046875 L 3.59375 -3.84375 C 3.351562 -3.988281 3.140625 -4.0625 2.953125 -4.0625 C 2.691406 -4.0625 2.492188 -3.972656 2.359375 -3.796875 C 2.222656 -3.628906 2.132812 -3.382812 2.09375 -3.0625 C 2.050781 -2.75 2.03125 -2.328125 2.03125 -1.796875 L 2.03125 0 L 0.65625 0 L 0.65625 -5.1875 L 1.9375 -5.1875 L 1.9375 -4.453125 L 1.953125 -4.453125 C 2.117188 -4.734375 2.285156 -4.941406 2.453125 -5.078125 C 2.617188 -5.222656 2.84375 -5.296875 3.125 -5.296875 Z M 3.125 -5.296875 "/></g></g></g><g fill="#2c7080" fill-opacity="1"><g transform="translate(280.204603, 215.034535)"><g><path d="M 3.0625 -5.296875 C 3.625 -5.296875 4.109375 -5.171875 4.515625 -4.921875 C 4.921875 -4.671875 5.226562 -4.335938 5.4375 -3.921875 C 5.644531 -3.503906 5.75 -3.066406 5.75 -2.609375 C 5.75 -2.128906 5.640625 -1.679688 5.421875 -1.265625 C 5.203125 -0.847656 4.890625 -0.507812 4.484375 -0.25 C 4.085938 0 3.617188 0.125 3.078125 0.125 C 2.617188 0.125 2.1875 0.03125 1.78125 -0.15625 C 1.375 -0.351562 1.039062 -0.660156 0.78125 -1.078125 C 0.53125 -1.492188 0.40625 -2.019531 0.40625 -2.65625 C 0.40625 -3.101562 0.503906 -3.53125 0.703125 -3.9375 C 0.910156 -4.34375 1.210938 -4.671875 1.609375 -4.921875 C 2.015625 -5.171875 2.5 -5.296875 3.0625 -5.296875 Z M 1.8125 -2.59375 C 1.8125 -2.070312 1.929688 -1.675781 2.171875 -1.40625 C 2.421875 -1.132812 2.71875 -1 3.0625 -1 C 3.414062 -1 3.71875 -1.128906 3.96875 -1.390625 C 4.21875 -1.660156 4.34375 -2.0625 4.34375 -2.59375 C 4.34375 -3.09375 4.222656 -3.484375 3.984375 -3.765625 C 3.742188 -4.046875 3.4375 -4.1875 3.0625 -4.1875 C 2.71875 -4.1875 2.421875 -4.046875 2.171875 -3.765625 C 1.929688 -3.492188 1.8125 -3.101562 1.8125 -2.59375 Z M 1.8125 -2.59375 "/></g></g></g><g fill="#2c7080" fill-opacity="1"><g transform="translate(287.252184, 215.034535)"><g><path d="M 2.0625 -2.515625 C 2.0625 -2.148438 2.066406 -1.882812 2.078125 -1.71875 C 2.097656 -1.550781 2.132812 -1.414062 2.1875 -1.3125 C 2.25 -1.207031 2.34375 -1.117188 2.46875 -1.046875 C 2.59375 -0.972656 2.742188 -0.9375 2.921875 -0.9375 C 3.160156 -0.9375 3.375 -1 3.5625 -1.125 C 3.757812 -1.257812 3.882812 -1.425781 3.9375 -1.625 C 4 -1.8125 4.03125 -2.222656 4.03125 -2.859375 L 4.03125 -5.1875 L 5.40625 -5.1875 L 5.40625 0 L 4.125 0 L 4.125 -0.78125 L 4.109375 -0.78125 C 3.910156 -0.488281 3.660156 -0.265625 3.359375 -0.109375 C 3.054688 0.046875 2.738281 0.125 2.40625 0.125 C 2.113281 0.125 1.835938 0.0664062 1.578125 -0.046875 C 1.316406 -0.171875 1.113281 -0.347656 0.96875 -0.578125 C 0.863281 -0.734375 0.789062 -0.910156 0.75 -1.109375 C 0.707031 -1.304688 0.6875 -1.550781 0.6875 -1.84375 L 0.6875 -5.1875 L 2.0625 -5.1875 Z M 2.0625 -2.515625 "/></g></g></g><g fill="#2c7080" fill-opacity="1"><g transform="translate(294.299764, 215.034535)"><g><path d="M 3.5625 -5.296875 C 3.945312 -5.296875 4.300781 -5.191406 4.625 -4.984375 C 4.957031 -4.785156 5.222656 -4.476562 5.421875 -4.0625 C 5.628906 -3.644531 5.734375 -3.140625 5.734375 -2.546875 C 5.734375 -1.960938 5.632812 -1.46875 5.4375 -1.0625 C 5.25 -0.664062 4.988281 -0.367188 4.65625 -0.171875 C 4.320312 0.0234375 3.957031 0.125 3.5625 0.125 C 2.976562 0.125 2.472656 -0.113281 2.046875 -0.59375 L 2.046875 1.96875 L 0.6875 1.96875 L 0.6875 -5.1875 L 1.953125 -5.1875 L 1.953125 -4.421875 L 1.984375 -4.421875 C 2.140625 -4.660156 2.359375 -4.863281 2.640625 -5.03125 C 2.921875 -5.207031 3.226562 -5.296875 3.5625 -5.296875 Z M 2.15625 -3.359375 C 2.082031 -3.148438 2.046875 -2.859375 2.046875 -2.484375 C 2.046875 -1.960938 2.148438 -1.570312 2.359375 -1.3125 C 2.578125 -1.0625 2.851562 -0.9375 3.1875 -0.9375 C 3.59375 -0.9375 3.882812 -1.09375 4.0625 -1.40625 C 4.238281 -1.726562 4.328125 -2.125 4.328125 -2.59375 C 4.328125 -3.15625 4.222656 -3.5625 4.015625 -3.8125 C 3.804688 -4.070312 3.546875 -4.203125 3.234375 -4.203125 C 2.992188 -4.203125 2.773438 -4.128906 2.578125 -3.984375 C 2.390625 -3.835938 2.25 -3.628906 2.15625 -3.359375 Z M 2.15625 -3.359375 "/></g></g></g><g fill="#2c7080" fill-opacity="1"><g transform="translate(301.347344, 215.034535)"><g/></g></g><g fill="#2c7080" fill-opacity="1"><g transform="translate(305.066239, 215.034535)"><g><path d="M 3.9375 0 L 2.5625 0 L 2.5625 -5.171875 C 2.050781 -4.703125 1.460938 -4.351562 0.796875 -4.125 L 0.796875 -5.375 C 1.160156 -5.5 1.546875 -5.71875 1.953125 -6.03125 C 2.367188 -6.351562 2.65625 -6.738281 2.8125 -7.1875 L 3.9375 -7.1875 Z M 3.9375 0 "/></g></g></g><g fill="#2c7080" fill-opacity="1"><g transform="translate(311.564045, 215.034535)"><g><path d="M 2.734375 -7.1875 C 3.546875 -7.1875 4.132812 -6.867188 4.5 -6.234375 C 4.875 -5.609375 5.0625 -4.707031 5.0625 -3.53125 C 5.0625 -1.09375 4.289062 0.125 2.75 0.125 C 1.195312 0.125 0.421875 -1.050781 0.421875 -3.40625 L 0.421875 -3.65625 C 0.421875 -4.757812 0.601562 -5.625 0.96875 -6.25 C 1.34375 -6.875 1.929688 -7.1875 2.734375 -7.1875 Z M 1.859375 -3.53125 C 1.859375 -2.945312 1.878906 -2.476562 1.921875 -2.125 C 1.960938 -1.769531 2.046875 -1.492188 2.171875 -1.296875 C 2.304688 -1.109375 2.492188 -1.015625 2.734375 -1.015625 C 2.960938 -1.015625 3.140625 -1.09375 3.265625 -1.25 C 3.390625 -1.40625 3.476562 -1.664062 3.53125 -2.03125 C 3.59375 -2.394531 3.625 -2.894531 3.625 -3.53125 C 3.625 -4.1875 3.59375 -4.691406 3.53125 -5.046875 C 3.476562 -5.410156 3.382812 -5.664062 3.25 -5.8125 C 3.125 -5.96875 2.953125 -6.046875 2.734375 -6.046875 C 2.515625 -6.046875 2.34375 -5.960938 2.21875 -5.796875 C 2.09375 -5.640625 2 -5.378906 1.9375 -5.015625 C 1.882812 -4.660156 1.859375 -4.164062 1.859375 -3.53125 Z M 1.859375 -3.53125 "/></g></g></g></svg>