<svg id="visual" viewBox="0 0 500 500" width="500" height="500" xmlns="http://www.w3.org/2000/svg" xmlns:xlink="http://www.w3.org/1999/xlink" version="1.1"><g transform="translate(298.25936189170636 210.58515851784222)"><path d="M65.3 -98.9C88.3 -86.8 113.3 -75 133.8 -54.1C154.2 -33.2 170.1 -3.2 175.1 31.5C180 66.3 173.9 105.8 149.7 124.6C125.5 143.3 83.2 141.2 42 161.8C0.9 182.3 -39 225.5 -85.1 236.4C-131.3 247.3 -183.7 226 -221.6 188.5C-259.4 151.1 -282.6 97.5 -269.5 51.4C-256.4 5.4 -206.9 -33.3 -175.5 -71.1C-144.2 -109 -131 -146.2 -104.8 -156.9C-78.6 -167.6 -39.3 -151.8 -9.1 -137.7C21.1 -123.5 42.2 -111.1 65.3 -98.9" fill="#fdc435"></path></g></svg>